<mxfile host="app.diagrams.net" modified="2023-11-13T16:56:14.801Z" agent="Mozilla/5.0 (Windows NT 10.0; Win64; x64) AppleWebKit/537.36 (KHTML, like Gecko) Chrome/119.0.0.0 Safari/537.36 Edg/119.0.0.0" etag="-_zY3B826uX946wR8Bb-" version="22.1.0" type="device">
  <diagram name="Page-1" id="0783ab3e-0a74-02c8-0abd-f7b4e66b4bec">
    <mxGraphModel dx="906" dy="465" grid="1" gridSize="10" guides="1" tooltips="1" connect="1" arrows="1" fold="1" page="1" pageScale="1" pageWidth="850" pageHeight="1100" background="none" math="0" shadow="0">
      <root>
        <mxCell id="0" />
        <mxCell id="1" parent="0" />
        <mxCell id="BENJMGik39twZpk4T32y-44" value="" style="swimlane;startSize=0;" vertex="1" parent="1">
          <mxGeometry x="310" y="80" width="330" height="330" as="geometry" />
        </mxCell>
        <mxCell id="BENJMGik39twZpk4T32y-48" value="Передача личных данных в систему" style="ellipse;whiteSpace=wrap;html=1;" vertex="1" parent="BENJMGik39twZpk4T32y-44">
          <mxGeometry x="40" y="110" width="110" height="60" as="geometry" />
        </mxCell>
        <mxCell id="BENJMGik39twZpk4T32y-49" value="Регистрация артистов" style="ellipse;whiteSpace=wrap;html=1;" vertex="1" parent="BENJMGik39twZpk4T32y-44">
          <mxGeometry x="125" y="210" width="110" height="50" as="geometry" />
        </mxCell>
        <mxCell id="BENJMGik39twZpk4T32y-50" value="Регистрация посетителей" style="ellipse;whiteSpace=wrap;html=1;" vertex="1" parent="BENJMGik39twZpk4T32y-44">
          <mxGeometry x="20" y="250" width="110" height="50" as="geometry" />
        </mxCell>
        <mxCell id="BENJMGik39twZpk4T32y-56" value="Обработка входящих запросов" style="ellipse;whiteSpace=wrap;html=1;" vertex="1" parent="BENJMGik39twZpk4T32y-44">
          <mxGeometry x="130" y="50" width="110" height="50" as="geometry" />
        </mxCell>
        <mxCell id="BENJMGik39twZpk4T32y-57" value="Работа с базами клиентов" style="ellipse;whiteSpace=wrap;html=1;" vertex="1" parent="BENJMGik39twZpk4T32y-44">
          <mxGeometry x="20" y="10" width="105" height="50" as="geometry" />
        </mxCell>
        <mxCell id="BENJMGik39twZpk4T32y-58" value="Регистрация артистов" style="ellipse;whiteSpace=wrap;html=1;" vertex="1" parent="BENJMGik39twZpk4T32y-44">
          <mxGeometry x="200" y="150" width="110" height="50" as="geometry" />
        </mxCell>
        <mxCell id="BENJMGik39twZpk4T32y-45" value="Системный &lt;br&gt;администратор" style="shape=umlActor;verticalLabelPosition=bottom;verticalAlign=top;html=1;outlineConnect=0;" vertex="1" parent="1">
          <mxGeometry x="210" y="90" width="30" height="60" as="geometry" />
        </mxCell>
        <mxCell id="BENJMGik39twZpk4T32y-46" value="Посетитель" style="shape=umlActor;verticalLabelPosition=bottom;verticalAlign=top;html=1;outlineConnect=0;" vertex="1" parent="1">
          <mxGeometry x="220" y="320" width="30" height="60" as="geometry" />
        </mxCell>
        <mxCell id="BENJMGik39twZpk4T32y-47" value="Организатор&lt;br&gt;&lt;font&gt;мероприятия&lt;/font&gt;" style="shape=umlActor;verticalLabelPosition=bottom;verticalAlign=top;html=1;outlineConnect=0;" vertex="1" parent="1">
          <mxGeometry x="690" y="340" width="30" height="60" as="geometry" />
        </mxCell>
        <mxCell id="BENJMGik39twZpk4T32y-51" value="" style="endArrow=none;html=1;rounded=0;entryX=1;entryY=0.5;entryDx=0;entryDy=0;" edge="1" parent="1" source="BENJMGik39twZpk4T32y-47" target="BENJMGik39twZpk4T32y-49">
          <mxGeometry width="50" height="50" relative="1" as="geometry">
            <mxPoint x="390" y="280" as="sourcePoint" />
            <mxPoint x="440" y="230" as="targetPoint" />
          </mxGeometry>
        </mxCell>
        <mxCell id="BENJMGik39twZpk4T32y-52" value="" style="endArrow=none;html=1;rounded=0;entryX=1;entryY=0.5;entryDx=0;entryDy=0;" edge="1" parent="1" source="BENJMGik39twZpk4T32y-47" target="BENJMGik39twZpk4T32y-50">
          <mxGeometry width="50" height="50" relative="1" as="geometry">
            <mxPoint x="700" y="290" as="sourcePoint" />
            <mxPoint x="604" y="340" as="targetPoint" />
          </mxGeometry>
        </mxCell>
        <mxCell id="BENJMGik39twZpk4T32y-53" value="" style="endArrow=none;html=1;rounded=0;exitX=0.5;exitY=0.5;exitDx=0;exitDy=0;exitPerimeter=0;entryX=0;entryY=0.5;entryDx=0;entryDy=0;" edge="1" parent="1" source="BENJMGik39twZpk4T32y-46" target="BENJMGik39twZpk4T32y-50">
          <mxGeometry width="50" height="50" relative="1" as="geometry">
            <mxPoint x="240" y="300" as="sourcePoint" />
            <mxPoint x="290" y="250" as="targetPoint" />
          </mxGeometry>
        </mxCell>
        <mxCell id="BENJMGik39twZpk4T32y-54" value="" style="endArrow=none;html=1;rounded=0;entryX=0;entryY=0.5;entryDx=0;entryDy=0;" edge="1" parent="1" source="BENJMGik39twZpk4T32y-45" target="BENJMGik39twZpk4T32y-48">
          <mxGeometry width="50" height="50" relative="1" as="geometry">
            <mxPoint x="260" y="150" as="sourcePoint" />
            <mxPoint x="310" y="100" as="targetPoint" />
          </mxGeometry>
        </mxCell>
        <mxCell id="BENJMGik39twZpk4T32y-55" value="" style="endArrow=none;html=1;rounded=0;entryX=0;entryY=1;entryDx=0;entryDy=0;" edge="1" parent="1" source="BENJMGik39twZpk4T32y-46" target="BENJMGik39twZpk4T32y-48">
          <mxGeometry width="50" height="50" relative="1" as="geometry">
            <mxPoint x="250" y="280" as="sourcePoint" />
            <mxPoint x="310" y="220" as="targetPoint" />
          </mxGeometry>
        </mxCell>
        <mxCell id="BENJMGik39twZpk4T32y-59" value="" style="endArrow=none;html=1;rounded=0;entryX=0;entryY=0.5;entryDx=0;entryDy=0;" edge="1" parent="1" source="BENJMGik39twZpk4T32y-45" target="BENJMGik39twZpk4T32y-57">
          <mxGeometry width="50" height="50" relative="1" as="geometry">
            <mxPoint x="260" y="110" as="sourcePoint" />
            <mxPoint x="300" y="70" as="targetPoint" />
          </mxGeometry>
        </mxCell>
        <mxCell id="BENJMGik39twZpk4T32y-60" value="" style="endArrow=none;html=1;rounded=0;entryX=0;entryY=0.5;entryDx=0;entryDy=0;" edge="1" parent="1" source="BENJMGik39twZpk4T32y-45" target="BENJMGik39twZpk4T32y-56">
          <mxGeometry width="50" height="50" relative="1" as="geometry">
            <mxPoint x="260" y="90" as="sourcePoint" />
            <mxPoint x="300" y="50" as="targetPoint" />
          </mxGeometry>
        </mxCell>
        <mxCell id="BENJMGik39twZpk4T32y-61" value="" style="endArrow=none;html=1;rounded=0;entryX=1;entryY=1;entryDx=0;entryDy=0;" edge="1" parent="1" source="BENJMGik39twZpk4T32y-47" target="BENJMGik39twZpk4T32y-58">
          <mxGeometry width="50" height="50" relative="1" as="geometry">
            <mxPoint x="710" y="300" as="sourcePoint" />
            <mxPoint x="760" y="250" as="targetPoint" />
          </mxGeometry>
        </mxCell>
      </root>
    </mxGraphModel>
  </diagram>
</mxfile>
